# xmcd
#
# Track frame offsets: 
#        183
#        20108
#        41408
#        58083
#        81958
#        99358
#        118233
#        138083
#        154720
#        169158
#
# Disc length: 2583 seconds
#
# Revision: 5
# Processed by: cddbd v1.5.2PL0 Copyright (c) Steve Scherf et al.
# Submitted via: ExactAudioCopyFreeDBPlugin 1.0
#
DISCID=7f0a150a
DTITLE=Sonny Terry, Johnny Winter and Willie Dixon - Whoopin'
DYEAR=1984
DGENRE=Blues
TTITLE0=I Got My Eyes On You
TTITLE1=Sonny's Whoopin' The Doop
TTITLE2=Burnt Child
TTITLE3=Whoee, Whoee
TTITLE4=Crow Jane
TTITLE5=So Tough With Me
TTITLE6=Whoo Wee Baby
TTITLE7=I Think I Got The Blues
TTITLE8=Ya, Ya
TTITLE9=Roll Me Baby
EXTD=YEAR: 1984
EXTT0=
EXTT1=
EXTT2=
EXTT3=
EXTT4=
EXTT5=
EXTT6=
EXTT7=
EXTT8=
EXTT9=
PLAYORDER=
